<mxfile host="app.diagrams.net" modified="2021-07-30T02:27:21.696Z" agent="5.0 (Macintosh; Intel Mac OS X 10_15_7) AppleWebKit/537.36 (KHTML, like Gecko) Chrome/92.0.4515.107 Safari/537.36" etag="AITs4EFkvioH6gSxmNan" version="14.9.3" type="github">
  <diagram id="G_U8lHvW5cUXcmPhVR-c" name="Page-1">
    <mxGraphModel dx="946" dy="511" grid="1" gridSize="10" guides="1" tooltips="1" connect="1" arrows="1" fold="1" page="1" pageScale="1" pageWidth="827" pageHeight="1169" math="0" shadow="0">
      <root>
        <mxCell id="0" />
        <mxCell id="1" parent="0" />
        <mxCell id="HYY_kzJ3Hrmyk-N-5U69-1" value="&lt;span style=&quot;color: rgb(50 , 50 , 50) ; font-size: 16px ; font-style: normal ; font-weight: 700 ; letter-spacing: normal ; text-align: center ; text-indent: 0px ; text-transform: none ; word-spacing: 0px ; background-color: rgba(255 , 255 , 255 , 0.01) ; display: inline ; float: none&quot;&gt;MySql 默认情况下一个节点大小是16K&lt;br&gt;&lt;br&gt;&lt;/span&gt;" style="text;whiteSpace=wrap;html=1;" parent="1" vertex="1">
          <mxGeometry x="125" y="30" width="300" height="30" as="geometry" />
        </mxCell>
        <mxCell id="HYY_kzJ3Hrmyk-N-5U69-2" value="" style="shape=image;verticalLabelPosition=bottom;labelBackgroundColor=#ffffff;verticalAlign=top;aspect=fixed;imageAspect=0;image=https://i.loli.net/2021/07/30/4jopbARvwME8mur.png;" parent="1" vertex="1">
          <mxGeometry x="125" y="120" width="275.12" height="130" as="geometry" />
        </mxCell>
        <mxCell id="HYY_kzJ3Hrmyk-N-5U69-3" value="索引：name&lt;br&gt;这里的name指的是被用来建立索引的那个字段&lt;br&gt;是一个键值对" style="text;html=1;align=center;verticalAlign=middle;resizable=0;points=[];autosize=1;strokeColor=none;" parent="1" vertex="1">
          <mxGeometry x="401" y="60" width="260" height="50" as="geometry" />
        </mxCell>
        <mxCell id="HYY_kzJ3Hrmyk-N-5U69-4" value="键：&lt;br&gt;customer21" style="rounded=0;whiteSpace=wrap;html=1;" parent="1" vertex="1">
          <mxGeometry x="461" y="120" width="130" height="60" as="geometry" />
        </mxCell>
        <mxCell id="HYY_kzJ3Hrmyk-N-5U69-6" value="值：整条记录&lt;br&gt;（id/id、name、age）" style="rounded=0;whiteSpace=wrap;html=1;" parent="1" vertex="1">
          <mxGeometry x="461" y="180" width="130" height="60" as="geometry" />
        </mxCell>
        <mxCell id="HYY_kzJ3Hrmyk-N-5U69-7" value="8B" style="text;html=1;align=center;verticalAlign=middle;resizable=0;points=[];autosize=1;strokeColor=none;" parent="1" vertex="1">
          <mxGeometry x="606" y="140" width="30" height="20" as="geometry" />
        </mxCell>
        <mxCell id="HYY_kzJ3Hrmyk-N-5U69-8" value="1KB" style="text;html=1;align=center;verticalAlign=middle;resizable=0;points=[];autosize=1;strokeColor=none;" parent="1" vertex="1">
          <mxGeometry x="606" y="190" width="40" height="20" as="geometry" />
        </mxCell>
        <mxCell id="HYY_kzJ3Hrmyk-N-5U69-9" value="&lt;div style=&quot;text-align: left&quot;&gt;&lt;span&gt;&lt;b&gt;说明：&lt;/b&gt;&lt;/span&gt;&lt;/div&gt;&lt;div style=&quot;text-align: left&quot;&gt;&lt;span&gt;1. 数据量有 600万条，说明索引也有 600 万条数据&lt;/span&gt;&lt;/div&gt;&lt;div style=&quot;text-align: left&quot;&gt;&lt;span&gt;2. 因为一个索引的键值对是1032B，因此一个节点可以存放：16 * 1024 / 1032 ≈ 15 个&lt;/span&gt;&lt;/div&gt;&lt;div style=&quot;text-align: left&quot;&gt;&lt;span&gt;&lt;br&gt;&lt;/span&gt;&lt;/div&gt;" style="text;html=1;align=center;verticalAlign=middle;resizable=0;points=[];autosize=1;strokeColor=none;" parent="1" vertex="1">
          <mxGeometry x="125" y="260" width="470" height="60" as="geometry" />
        </mxCell>
      </root>
    </mxGraphModel>
  </diagram>
</mxfile>
